<mxfile host="app.diagrams.net" modified="2020-10-16T21:21:42.155Z" agent="5.0 (Windows NT 10.0; Win64; x64) AppleWebKit/537.36 (KHTML, like Gecko) Chrome/86.0.4240.75 Safari/537.36" etag="9whJoQjf3f3hREo3Zx8Z" version="13.8.0" type="github">
  <diagram id="R2lEEEUBdFMjLlhIrx00" name="Page-1">
    <mxGraphModel dx="992" dy="542" grid="1" gridSize="10" guides="1" tooltips="1" connect="1" arrows="1" fold="1" page="1" pageScale="1" pageWidth="850" pageHeight="1100" math="0" shadow="0" extFonts="Permanent Marker^https://fonts.googleapis.com/css?family=Permanent+Marker">
      <root>
        <mxCell id="0" />
        <mxCell id="1" parent="0" />
        <mxCell id="HPt0r1XjoV8yn2LncIv3-6" style="edgeStyle=orthogonalEdgeStyle;rounded=0;orthogonalLoop=1;jettySize=auto;html=1;exitX=0;exitY=1;exitDx=0;exitDy=0;entryX=0;entryY=0.5;entryDx=0;entryDy=0;" edge="1" parent="1" source="HPt0r1XjoV8yn2LncIv3-2" target="HPt0r1XjoV8yn2LncIv3-3">
          <mxGeometry relative="1" as="geometry" />
        </mxCell>
        <mxCell id="HPt0r1XjoV8yn2LncIv3-7" style="edgeStyle=orthogonalEdgeStyle;rounded=0;orthogonalLoop=1;jettySize=auto;html=1;exitX=0;exitY=1;exitDx=0;exitDy=0;entryX=0;entryY=0.5;entryDx=0;entryDy=0;" edge="1" parent="1" source="HPt0r1XjoV8yn2LncIv3-2" target="HPt0r1XjoV8yn2LncIv3-4">
          <mxGeometry relative="1" as="geometry" />
        </mxCell>
        <mxCell id="HPt0r1XjoV8yn2LncIv3-8" style="edgeStyle=orthogonalEdgeStyle;rounded=0;orthogonalLoop=1;jettySize=auto;html=1;exitX=0;exitY=1;exitDx=0;exitDy=0;entryX=0;entryY=0.5;entryDx=0;entryDy=0;" edge="1" parent="1" source="HPt0r1XjoV8yn2LncIv3-2" target="HPt0r1XjoV8yn2LncIv3-5">
          <mxGeometry relative="1" as="geometry" />
        </mxCell>
        <mxCell id="HPt0r1XjoV8yn2LncIv3-58" style="edgeStyle=orthogonalEdgeStyle;rounded=0;orthogonalLoop=1;jettySize=auto;html=1;exitX=1;exitY=0.5;exitDx=0;exitDy=0;entryX=0;entryY=0.5;entryDx=0;entryDy=0;endArrow=none;endFill=0;startArrow=ERoneToMany;startFill=0;" edge="1" parent="1" source="HPt0r1XjoV8yn2LncIv3-2" target="HPt0r1XjoV8yn2LncIv3-48">
          <mxGeometry relative="1" as="geometry" />
        </mxCell>
        <mxCell id="HPt0r1XjoV8yn2LncIv3-2" value="kitchen_department" style="whiteSpace=wrap;html=1;align=center;" vertex="1" parent="1">
          <mxGeometry x="60" y="145" width="130" height="50" as="geometry" />
        </mxCell>
        <mxCell id="HPt0r1XjoV8yn2LncIv3-3" value="name" style="ellipse;whiteSpace=wrap;html=1;align=center;" vertex="1" parent="1">
          <mxGeometry x="80" y="215" width="110" height="40" as="geometry" />
        </mxCell>
        <mxCell id="HPt0r1XjoV8yn2LncIv3-4" value="&lt;u&gt;Id&lt;/u&gt;" style="ellipse;whiteSpace=wrap;html=1;align=center;" vertex="1" parent="1">
          <mxGeometry x="80" y="265" width="110" height="40" as="geometry" />
        </mxCell>
        <mxCell id="HPt0r1XjoV8yn2LncIv3-5" value="employeers_count" style="ellipse;whiteSpace=wrap;html=1;align=center;" vertex="1" parent="1">
          <mxGeometry x="80" y="315" width="110" height="40" as="geometry" />
        </mxCell>
        <mxCell id="HPt0r1XjoV8yn2LncIv3-17" style="edgeStyle=orthogonalEdgeStyle;rounded=0;orthogonalLoop=1;jettySize=auto;html=1;exitX=0;exitY=1;exitDx=0;exitDy=0;entryX=0;entryY=0.5;entryDx=0;entryDy=0;" edge="1" parent="1" source="HPt0r1XjoV8yn2LncIv3-9" target="HPt0r1XjoV8yn2LncIv3-10">
          <mxGeometry relative="1" as="geometry" />
        </mxCell>
        <mxCell id="HPt0r1XjoV8yn2LncIv3-18" style="edgeStyle=orthogonalEdgeStyle;rounded=0;orthogonalLoop=1;jettySize=auto;html=1;exitX=0;exitY=1;exitDx=0;exitDy=0;entryX=0;entryY=0.5;entryDx=0;entryDy=0;" edge="1" parent="1" source="HPt0r1XjoV8yn2LncIv3-9" target="HPt0r1XjoV8yn2LncIv3-11">
          <mxGeometry relative="1" as="geometry" />
        </mxCell>
        <mxCell id="HPt0r1XjoV8yn2LncIv3-19" style="edgeStyle=orthogonalEdgeStyle;rounded=0;orthogonalLoop=1;jettySize=auto;html=1;exitX=0;exitY=1;exitDx=0;exitDy=0;entryX=0;entryY=0.5;entryDx=0;entryDy=0;" edge="1" parent="1" source="HPt0r1XjoV8yn2LncIv3-9" target="HPt0r1XjoV8yn2LncIv3-15">
          <mxGeometry relative="1" as="geometry" />
        </mxCell>
        <mxCell id="HPt0r1XjoV8yn2LncIv3-20" style="edgeStyle=orthogonalEdgeStyle;rounded=0;orthogonalLoop=1;jettySize=auto;html=1;exitX=0;exitY=1;exitDx=0;exitDy=0;entryX=0;entryY=0.5;entryDx=0;entryDy=0;" edge="1" parent="1" source="HPt0r1XjoV8yn2LncIv3-9" target="HPt0r1XjoV8yn2LncIv3-12">
          <mxGeometry relative="1" as="geometry" />
        </mxCell>
        <mxCell id="HPt0r1XjoV8yn2LncIv3-21" style="edgeStyle=orthogonalEdgeStyle;rounded=0;orthogonalLoop=1;jettySize=auto;html=1;exitX=0;exitY=1;exitDx=0;exitDy=0;entryX=0;entryY=0.5;entryDx=0;entryDy=0;" edge="1" parent="1" source="HPt0r1XjoV8yn2LncIv3-9" target="HPt0r1XjoV8yn2LncIv3-16">
          <mxGeometry relative="1" as="geometry" />
        </mxCell>
        <mxCell id="HPt0r1XjoV8yn2LncIv3-9" value="employeers" style="whiteSpace=wrap;html=1;align=center;" vertex="1" parent="1">
          <mxGeometry x="360" y="15" width="130" height="50" as="geometry" />
        </mxCell>
        <mxCell id="HPt0r1XjoV8yn2LncIv3-10" value="&lt;u&gt;Id&lt;/u&gt;" style="ellipse;whiteSpace=wrap;html=1;align=center;" vertex="1" parent="1">
          <mxGeometry x="380" y="95" width="110" height="40" as="geometry" />
        </mxCell>
        <mxCell id="HPt0r1XjoV8yn2LncIv3-11" value="name" style="ellipse;whiteSpace=wrap;html=1;align=center;" vertex="1" parent="1">
          <mxGeometry x="380" y="145" width="110" height="40" as="geometry" />
        </mxCell>
        <mxCell id="HPt0r1XjoV8yn2LncIv3-12" value="position" style="ellipse;whiteSpace=wrap;html=1;align=center;" vertex="1" parent="1">
          <mxGeometry x="380" y="245" width="110" height="40" as="geometry" />
        </mxCell>
        <mxCell id="HPt0r1XjoV8yn2LncIv3-15" value="phone_number" style="ellipse;shape=doubleEllipse;margin=3;whiteSpace=wrap;html=1;align=center;" vertex="1" parent="1">
          <mxGeometry x="380" y="195" width="110" height="40" as="geometry" />
        </mxCell>
        <mxCell id="HPt0r1XjoV8yn2LncIv3-16" value="department" style="ellipse;whiteSpace=wrap;html=1;align=center;" vertex="1" parent="1">
          <mxGeometry x="380" y="295" width="110" height="40" as="geometry" />
        </mxCell>
        <mxCell id="HPt0r1XjoV8yn2LncIv3-28" style="edgeStyle=orthogonalEdgeStyle;rounded=0;orthogonalLoop=1;jettySize=auto;html=1;exitX=0;exitY=1;exitDx=0;exitDy=0;entryX=0;entryY=0.5;entryDx=0;entryDy=0;" edge="1" parent="1" source="HPt0r1XjoV8yn2LncIv3-23" target="HPt0r1XjoV8yn2LncIv3-24">
          <mxGeometry relative="1" as="geometry" />
        </mxCell>
        <mxCell id="HPt0r1XjoV8yn2LncIv3-29" style="edgeStyle=orthogonalEdgeStyle;rounded=0;orthogonalLoop=1;jettySize=auto;html=1;exitX=0;exitY=1;exitDx=0;exitDy=0;entryX=0;entryY=0.5;entryDx=0;entryDy=0;" edge="1" parent="1" source="HPt0r1XjoV8yn2LncIv3-23" target="HPt0r1XjoV8yn2LncIv3-25">
          <mxGeometry relative="1" as="geometry" />
        </mxCell>
        <mxCell id="HPt0r1XjoV8yn2LncIv3-30" style="edgeStyle=orthogonalEdgeStyle;rounded=0;orthogonalLoop=1;jettySize=auto;html=1;exitX=0;exitY=1;exitDx=0;exitDy=0;entryX=0;entryY=0.5;entryDx=0;entryDy=0;" edge="1" parent="1" source="HPt0r1XjoV8yn2LncIv3-23" target="HPt0r1XjoV8yn2LncIv3-26">
          <mxGeometry relative="1" as="geometry" />
        </mxCell>
        <mxCell id="HPt0r1XjoV8yn2LncIv3-31" style="edgeStyle=orthogonalEdgeStyle;rounded=0;orthogonalLoop=1;jettySize=auto;html=1;exitX=0;exitY=1;exitDx=0;exitDy=0;entryX=0;entryY=0.5;entryDx=0;entryDy=0;" edge="1" parent="1" source="HPt0r1XjoV8yn2LncIv3-23" target="HPt0r1XjoV8yn2LncIv3-27">
          <mxGeometry relative="1" as="geometry" />
        </mxCell>
        <mxCell id="HPt0r1XjoV8yn2LncIv3-23" value="bookkeping" style="whiteSpace=wrap;html=1;align=center;" vertex="1" parent="1">
          <mxGeometry x="650" y="80" width="130" height="50" as="geometry" />
        </mxCell>
        <mxCell id="HPt0r1XjoV8yn2LncIv3-24" value="&lt;u&gt;Id&lt;/u&gt;" style="ellipse;whiteSpace=wrap;html=1;align=center;" vertex="1" parent="1">
          <mxGeometry x="670" y="155" width="110" height="40" as="geometry" />
        </mxCell>
        <mxCell id="HPt0r1XjoV8yn2LncIv3-25" value="salary" style="ellipse;whiteSpace=wrap;html=1;align=center;" vertex="1" parent="1">
          <mxGeometry x="670" y="200" width="110" height="40" as="geometry" />
        </mxCell>
        <mxCell id="HPt0r1XjoV8yn2LncIv3-26" value="name" style="ellipse;whiteSpace=wrap;html=1;align=center;" vertex="1" parent="1">
          <mxGeometry x="670" y="250" width="110" height="40" as="geometry" />
        </mxCell>
        <mxCell id="HPt0r1XjoV8yn2LncIv3-27" value="department" style="ellipse;whiteSpace=wrap;html=1;align=center;" vertex="1" parent="1">
          <mxGeometry x="670" y="300" width="110" height="40" as="geometry" />
        </mxCell>
        <mxCell id="HPt0r1XjoV8yn2LncIv3-36" style="edgeStyle=orthogonalEdgeStyle;rounded=0;orthogonalLoop=1;jettySize=auto;html=1;exitX=0;exitY=1;exitDx=0;exitDy=0;entryX=0;entryY=0.5;entryDx=0;entryDy=0;" edge="1" parent="1" source="HPt0r1XjoV8yn2LncIv3-32" target="HPt0r1XjoV8yn2LncIv3-33">
          <mxGeometry relative="1" as="geometry" />
        </mxCell>
        <mxCell id="HPt0r1XjoV8yn2LncIv3-37" style="edgeStyle=orthogonalEdgeStyle;rounded=0;orthogonalLoop=1;jettySize=auto;html=1;exitX=0;exitY=1;exitDx=0;exitDy=0;entryX=0;entryY=0.5;entryDx=0;entryDy=0;" edge="1" parent="1" source="HPt0r1XjoV8yn2LncIv3-32" target="HPt0r1XjoV8yn2LncIv3-34">
          <mxGeometry relative="1" as="geometry" />
        </mxCell>
        <mxCell id="HPt0r1XjoV8yn2LncIv3-38" style="edgeStyle=orthogonalEdgeStyle;rounded=0;orthogonalLoop=1;jettySize=auto;html=1;exitX=0;exitY=1;exitDx=0;exitDy=0;entryX=0;entryY=0.5;entryDx=0;entryDy=0;" edge="1" parent="1" source="HPt0r1XjoV8yn2LncIv3-32" target="HPt0r1XjoV8yn2LncIv3-35">
          <mxGeometry relative="1" as="geometry" />
        </mxCell>
        <mxCell id="HPt0r1XjoV8yn2LncIv3-32" value="menu" style="whiteSpace=wrap;html=1;align=center;" vertex="1" parent="1">
          <mxGeometry x="120" y="430" width="130" height="50" as="geometry" />
        </mxCell>
        <mxCell id="HPt0r1XjoV8yn2LncIv3-33" value="&lt;u&gt;dish&lt;/u&gt;" style="ellipse;whiteSpace=wrap;html=1;align=center;" vertex="1" parent="1">
          <mxGeometry x="140" y="500" width="110" height="40" as="geometry" />
        </mxCell>
        <mxCell id="HPt0r1XjoV8yn2LncIv3-34" value="cost" style="ellipse;whiteSpace=wrap;html=1;align=center;" vertex="1" parent="1">
          <mxGeometry x="140" y="550" width="110" height="40" as="geometry" />
        </mxCell>
        <mxCell id="HPt0r1XjoV8yn2LncIv3-35" value="department" style="ellipse;whiteSpace=wrap;html=1;align=center;" vertex="1" parent="1">
          <mxGeometry x="140" y="600" width="110" height="40" as="geometry" />
        </mxCell>
        <mxCell id="HPt0r1XjoV8yn2LncIv3-43" style="edgeStyle=orthogonalEdgeStyle;rounded=0;orthogonalLoop=1;jettySize=auto;html=1;exitX=0;exitY=1;exitDx=0;exitDy=0;entryX=0;entryY=0.5;entryDx=0;entryDy=0;" edge="1" parent="1" source="HPt0r1XjoV8yn2LncIv3-39" target="HPt0r1XjoV8yn2LncIv3-40">
          <mxGeometry relative="1" as="geometry" />
        </mxCell>
        <mxCell id="HPt0r1XjoV8yn2LncIv3-44" style="edgeStyle=orthogonalEdgeStyle;rounded=0;orthogonalLoop=1;jettySize=auto;html=1;exitX=0;exitY=1;exitDx=0;exitDy=0;entryX=0;entryY=0.5;entryDx=0;entryDy=0;" edge="1" parent="1" source="HPt0r1XjoV8yn2LncIv3-39" target="HPt0r1XjoV8yn2LncIv3-41">
          <mxGeometry relative="1" as="geometry" />
        </mxCell>
        <mxCell id="HPt0r1XjoV8yn2LncIv3-45" style="edgeStyle=orthogonalEdgeStyle;rounded=0;orthogonalLoop=1;jettySize=auto;html=1;exitX=0;exitY=1;exitDx=0;exitDy=0;entryX=0;entryY=0.5;entryDx=0;entryDy=0;" edge="1" parent="1" source="HPt0r1XjoV8yn2LncIv3-39" target="HPt0r1XjoV8yn2LncIv3-42">
          <mxGeometry relative="1" as="geometry" />
        </mxCell>
        <mxCell id="HPt0r1XjoV8yn2LncIv3-39" value="storage" style="whiteSpace=wrap;html=1;align=center;" vertex="1" parent="1">
          <mxGeometry x="510" y="470" width="130" height="50" as="geometry" />
        </mxCell>
        <mxCell id="HPt0r1XjoV8yn2LncIv3-40" value="&lt;u&gt;Id&lt;/u&gt;" style="ellipse;whiteSpace=wrap;html=1;align=center;" vertex="1" parent="1">
          <mxGeometry x="530" y="540" width="110" height="40" as="geometry" />
        </mxCell>
        <mxCell id="HPt0r1XjoV8yn2LncIv3-41" value="product" style="ellipse;whiteSpace=wrap;html=1;align=center;" vertex="1" parent="1">
          <mxGeometry x="530" y="590" width="110" height="40" as="geometry" />
        </mxCell>
        <mxCell id="HPt0r1XjoV8yn2LncIv3-42" value="department" style="ellipse;whiteSpace=wrap;html=1;align=center;" vertex="1" parent="1">
          <mxGeometry x="530" y="640" width="110" height="40" as="geometry" />
        </mxCell>
        <mxCell id="HPt0r1XjoV8yn2LncIv3-51" style="edgeStyle=orthogonalEdgeStyle;rounded=0;orthogonalLoop=1;jettySize=auto;html=1;exitX=1;exitY=0.5;exitDx=0;exitDy=0;entryX=0.5;entryY=0;entryDx=0;entryDy=0;endArrow=ERone;endFill=0;" edge="1" parent="1" source="HPt0r1XjoV8yn2LncIv3-46" target="HPt0r1XjoV8yn2LncIv3-32">
          <mxGeometry relative="1" as="geometry" />
        </mxCell>
        <mxCell id="HPt0r1XjoV8yn2LncIv3-52" style="edgeStyle=orthogonalEdgeStyle;rounded=0;orthogonalLoop=1;jettySize=auto;html=1;exitX=0;exitY=0.5;exitDx=0;exitDy=0;entryX=0;entryY=0.5;entryDx=0;entryDy=0;endArrow=ERone;endFill=0;" edge="1" parent="1" source="HPt0r1XjoV8yn2LncIv3-46" target="HPt0r1XjoV8yn2LncIv3-2">
          <mxGeometry relative="1" as="geometry" />
        </mxCell>
        <mxCell id="HPt0r1XjoV8yn2LncIv3-46" value="has" style="shape=rhombus;perimeter=rhombusPerimeter;whiteSpace=wrap;html=1;align=center;" vertex="1" parent="1">
          <mxGeometry x="30" y="380" width="90" height="50" as="geometry" />
        </mxCell>
        <mxCell id="HPt0r1XjoV8yn2LncIv3-54" style="edgeStyle=orthogonalEdgeStyle;rounded=0;orthogonalLoop=1;jettySize=auto;html=1;exitX=0;exitY=0.5;exitDx=0;exitDy=0;entryX=0.5;entryY=0;entryDx=0;entryDy=0;endArrow=ERone;endFill=0;" edge="1" parent="1" source="HPt0r1XjoV8yn2LncIv3-47" target="HPt0r1XjoV8yn2LncIv3-2">
          <mxGeometry relative="1" as="geometry" />
        </mxCell>
        <mxCell id="HPt0r1XjoV8yn2LncIv3-55" style="edgeStyle=orthogonalEdgeStyle;rounded=0;orthogonalLoop=1;jettySize=auto;html=1;exitX=1;exitY=0.5;exitDx=0;exitDy=0;entryX=0;entryY=0.5;entryDx=0;entryDy=0;endArrow=ERoneToMany;endFill=0;" edge="1" parent="1" source="HPt0r1XjoV8yn2LncIv3-47" target="HPt0r1XjoV8yn2LncIv3-9">
          <mxGeometry relative="1" as="geometry" />
        </mxCell>
        <mxCell id="HPt0r1XjoV8yn2LncIv3-47" value="has" style="shape=rhombus;perimeter=rhombusPerimeter;whiteSpace=wrap;html=1;align=center;" vertex="1" parent="1">
          <mxGeometry x="160" y="15" width="90" height="50" as="geometry" />
        </mxCell>
        <mxCell id="HPt0r1XjoV8yn2LncIv3-59" style="edgeStyle=orthogonalEdgeStyle;rounded=0;orthogonalLoop=1;jettySize=auto;html=1;exitX=1;exitY=0.5;exitDx=0;exitDy=0;entryX=0.5;entryY=0;entryDx=0;entryDy=0;endArrow=ERoneToMany;endFill=0;" edge="1" parent="1" source="HPt0r1XjoV8yn2LncIv3-48" target="HPt0r1XjoV8yn2LncIv3-39">
          <mxGeometry relative="1" as="geometry" />
        </mxCell>
        <mxCell id="HPt0r1XjoV8yn2LncIv3-48" value="has" style="shape=rhombus;perimeter=rhombusPerimeter;whiteSpace=wrap;html=1;align=center;" vertex="1" parent="1">
          <mxGeometry x="340" y="380" width="90" height="50" as="geometry" />
        </mxCell>
        <mxCell id="HPt0r1XjoV8yn2LncIv3-56" style="edgeStyle=orthogonalEdgeStyle;rounded=0;orthogonalLoop=1;jettySize=auto;html=1;exitX=1;exitY=0.5;exitDx=0;exitDy=0;entryX=0.5;entryY=0;entryDx=0;entryDy=0;endArrow=ERone;endFill=0;" edge="1" parent="1" source="HPt0r1XjoV8yn2LncIv3-49" target="HPt0r1XjoV8yn2LncIv3-23">
          <mxGeometry relative="1" as="geometry" />
        </mxCell>
        <mxCell id="HPt0r1XjoV8yn2LncIv3-57" style="edgeStyle=orthogonalEdgeStyle;rounded=0;orthogonalLoop=1;jettySize=auto;html=1;exitX=0;exitY=0.5;exitDx=0;exitDy=0;entryX=1;entryY=0.5;entryDx=0;entryDy=0;endArrow=ERoneToMany;endFill=0;" edge="1" parent="1" source="HPt0r1XjoV8yn2LncIv3-49" target="HPt0r1XjoV8yn2LncIv3-9">
          <mxGeometry relative="1" as="geometry" />
        </mxCell>
        <mxCell id="HPt0r1XjoV8yn2LncIv3-49" value="produce" style="shape=rhombus;perimeter=rhombusPerimeter;whiteSpace=wrap;html=1;align=center;" vertex="1" parent="1">
          <mxGeometry x="580" y="15" width="90" height="50" as="geometry" />
        </mxCell>
      </root>
    </mxGraphModel>
  </diagram>
</mxfile>
